<svg width="28" height="29" viewBox="0 0 28 29" fill="none" xmlns="http://www.w3.org/2000/svg">
<g clip-path="url(#clip0_7_277)">
<path d="M27.5625 14.4744C27.5763 21.9469 21.4823 28.0572 14.0098 28.0624C10.7825 28.0647 7.81796 26.9397 5.48833 25.0595C4.88256 24.5706 4.83727 23.6627 5.38776 23.1122L6.00392 22.4961C6.47473 22.0253 7.22635 21.9738 7.74796 22.3876C9.46433 23.7496 11.6365 24.5625 14 24.5625C19.562 24.5625 24.0625 20.0611 24.0625 14.5C24.0625 8.93801 19.5611 4.4375 14 4.4375C11.3305 4.4375 8.90591 5.47487 7.10566 7.16816L9.88127 9.94377C10.4325 10.495 10.0421 11.4375 9.26259 11.4375H1.3125C0.829227 11.4375 0.4375 11.0458 0.4375 10.5625V2.61241C0.4375 1.8329 1.37998 1.44248 1.93123 1.99368L4.63127 4.69371C7.06612 2.36681 10.3661 0.9375 14 0.9375C21.4818 0.9375 27.5487 6.99578 27.5625 14.4744ZM17.6689 18.7829L18.2061 18.0921C18.6511 17.52 18.548 16.6953 17.9758 16.2503L15.75 14.5191V8.8125C15.75 8.08762 15.1624 7.5 14.4375 7.5H13.5625C12.8376 7.5 12.25 8.08762 12.25 8.8125V16.2309L15.8271 19.0131C16.3993 19.4581 17.2238 19.355 17.6689 18.7829Z" fill="#F7E6B8"/>
</g>
<defs>
<clipPath id="clip0_7_277">
<rect width="28" height="28" fill="white" transform="translate(0 0.5)"/>
</clipPath>
</defs>
</svg>
